<svg id="Layer_1" data-name="Layer 1" xmlns="http://www.w3.org/2000/svg" viewBox="0 0 998.67 1000.19"><defs><style>.cls-1{fill:#328080;}.cls-2{fill:#18ffff;}</style></defs><title>feature - simple</title><path class="cls-1" d="M990.38,417.61a20.63,20.63,0,0,0-19-17H902.27A413.19,413.19,0,0,0,853,281.81l5.66-5.66c14.14-14.14,28.29-28.69,42.84-42.43a20.3,20.3,0,0,0,2.42-26.27A500.7,500.7,0,0,0,788.71,92.67a20.3,20.3,0,0,0-26.27,2.42c-7.68,8.08-15.77,15.76-23.44,23.44-8.49,8.09-16.58,16.57-24.66,25.06a414.49,414.49,0,0,0-119.23-48.9V26.38a20.42,20.42,0,0,0-17-20.2,503.48,503.48,0,0,0-159.64,0c-10.11,1.61-17.38,10.91-17,21.42.41,8.48.41,17.38,0,25.86V94.69a414.55,414.55,0,0,0-119.22,48.9c-8.09-8.49-16.57-16.57-24.66-25.06L234.2,95.09a20.3,20.3,0,0,0-26.27-2.42A508.53,508.53,0,0,0,92.75,207.45a19.83,19.83,0,0,0,2.42,26.27c14.55,14.14,28.7,28.29,42.84,42.43l5.66,5.66A408.89,408.89,0,0,0,94.36,400.63c-16.16-.4-32.33-.4-48.09,0h-21a19.91,19.91,0,0,0-19,17,515.72,515.72,0,0,0,0,162.87,20.17,20.17,0,0,0,18.18,17c1.62,0,3.64.4,5.26.4H94.77a406.69,406.69,0,0,0,50.11,120c-9.29,8.89-18.59,18.18-27.48,27.48L102,760.74,96,766.8c-6.47,7.28-7.27,17.78-1.62,25.46a510.08,510.08,0,0,0,114.38,114,20.14,20.14,0,0,0,25.46-1.62l2-2c9.3-9.7,18.59-19,27.89-28.29l18.59-18.59A413.33,413.33,0,0,0,402.33,905v69.92a19.83,19.83,0,0,0,17,18.59,519.16,519.16,0,0,0,79.62,6.47,476.81,476.81,0,0,0,79.61-6.47c9.3-1.61,16.57-9.29,17-18.59V905a413.22,413.22,0,0,0,119.63-49.3c6.06,6.46,12.53,12.52,18.59,18.59l27.89,27.88,2.42,2.43c7.28,6.47,17.79,7.27,25.46,1.62a493.61,493.61,0,0,0,114.38-114,20.12,20.12,0,0,0-1.62-25.46,82,82,0,0,0-6.06-6.06l-15.36-15.36L853.37,717.9a417.62,417.62,0,0,0,50.12-120h70.32a20.18,20.18,0,0,0,18.19-17,493.88,493.88,0,0,0,6.46-81.24C996.85,471.77,994.83,444.69,990.38,417.61Zm-37.59,139h-68.7a20.64,20.64,0,0,0-18.59,16.17A370.2,370.2,0,0,1,808.91,708.2c-4.85,6.87-4.44,16.16,0,23a35.22,35.22,0,0,0,6.47,7.27c11.72,11.32,23.44,23,35.16,34.76l8.49,8.48a461.28,461.28,0,0,1-80.83,80.43L760.82,844.8l-26.27-26.27a38.42,38.42,0,0,0-7.68-6.46,20.18,20.18,0,0,0-22.23,0,367,367,0,0,1-134.58,55.37,20.54,20.54,0,0,0-15.77,14.95,56.54,56.54,0,0,0-1.21,12.12c.41,14.55.41,28.7.41,43.25v16.57a471.06,471.06,0,0,1-111.95,0V937.76c0-14.55,0-28.7.4-43.25a55.91,55.91,0,0,0-1.21-12.12c-2-7.68-8.09-13.74-15.77-14.95a361.47,361.47,0,0,1-134.58-55.37,20.18,20.18,0,0,0-22.23,0,38.42,38.42,0,0,0-7.68,6.46c-8.48,8.89-17.38,17.79-26.27,26.27-5.66,5.66-11.72,11.32-17.38,17.38A461.28,461.28,0,0,1,136,781.75l8.49-8.48c11.72-11.72,23-23.44,35.16-34.76a47.92,47.92,0,0,0,6.06-7.27,20.06,20.06,0,0,0,0-23,370.35,370.35,0,0,1-56.58-135.39,19.81,19.81,0,0,0-18.59-16.17c-1.21,0-2.83-.41-4.45,0H41.82a458.72,458.72,0,0,1,0-115.19h2.83c18.19,0,37.18,0,55.78.41a70.13,70.13,0,0,0,13.74-1.21,19.5,19.5,0,0,0,14.55-15.77,375.5,375.5,0,0,1,55.37-133.37,21,21,0,0,0,.4-22.23c-2.83-4.44-6.47-8.08-11.32-12.93l-8.08-8.08L134.78,218a450.65,450.65,0,0,1,82-82l11.32,11.32c10.1,10.1,20.21,20.21,29.91,30.31a47.36,47.36,0,0,0,13.33,9.7,20.61,20.61,0,0,0,19.4-1.62,366.42,366.42,0,0,1,133.78-55,20.69,20.69,0,0,0,15.76-14.55,52.18,52.18,0,0,0,1.21-11.72c-.4-9.3-.4-18.19,0-27.49V43.36a471.15,471.15,0,0,1,112,0v61a52.18,52.18,0,0,0,1.21,11.72c2,7.27,8.08,13.33,15.76,14.55a366.34,366.34,0,0,1,133.78,55,20.61,20.61,0,0,0,19.4,1.62,47.21,47.21,0,0,0,13.33-9.7c9.7-10.1,19.81-20.21,29.91-30.31l11.32-11.32a457,457,0,0,1,81.64,81.24l-30.31,30.31-8.09,8.08c-4.85,4.85-8.48,8.49-11.31,12.93-4.45,6.88-4,15.36.4,22.23A375.48,375.48,0,0,1,865.9,424.08a20.7,20.7,0,0,0,14.55,15.76,37.29,37.29,0,0,0,13.74,1.21c18.59-.81,37.59-.4,55.78-.4h2.82a461.18,461.18,0,0,1,3.64,57.79A453.64,453.64,0,0,1,952.79,556.64Zm15.77-135.39Z" transform="translate(0.21 0.19)"/><path class="cls-1" d="M710.3,346.07a252.32,252.32,0,0,0-60.62-60.22,261.89,261.89,0,0,0-305.14,0c-23.44,16.57-43.65,37.19-60.63,60.22a269,269,0,0,0-46.07,110.34,251.34,251.34,0,0,0-3.64,42.84,294.41,294.41,0,0,0,3.24,42.44,260.29,260.29,0,0,0,46.47,111.14,256.36,256.36,0,0,0,60.22,59.81,264.56,264.56,0,0,0,110.74,45.67,269.07,269.07,0,0,0,83.26,0,264.56,264.56,0,0,0,110.74-45.67,272.86,272.86,0,0,0,60.22-59.81,260.43,260.43,0,0,0,46.48-111.14h0a266.45,266.45,0,0,0-.41-85.28C749.91,416.8,733.74,378.81,710.3,346.07Zm6.06,189.15c-5.66,33.54-19,66.28-39.2,93.76a223.79,223.79,0,0,1-50.92,50.52,218.51,218.51,0,0,1-93.37,38.4,230.36,230.36,0,0,1-70.72,0,222.18,222.18,0,0,1-93.77-38.4A232,232,0,0,1,317.46,629a223.37,223.37,0,0,1-39.2-93.76,211.54,211.54,0,0,1-2.83-36,219.68,219.68,0,0,1,2.83-36.38,224.28,224.28,0,0,1,38.79-93.36A222.93,222.93,0,0,1,461.74,280.2a224.89,224.89,0,0,1,71.13,0,218.5,218.5,0,0,1,93.37,38.39,227.31,227.31,0,0,1,51.32,50.92,224.3,224.3,0,0,1,38.8,93.36,214.07,214.07,0,0,1,2.83,36.38A263.88,263.88,0,0,1,716.36,535.22Z" transform="translate(0.21 0.19)"/><path class="cls-2" d="M600.37,409.53,456.89,545.73l-61.83-64.26A20.29,20.29,0,1,0,366,509.76l76,78.81a20.5,20.5,0,0,0,14.55,6.06A21.68,21.68,0,0,0,470.63,589L629.06,438.62a20.36,20.36,0,0,0,.81-28.69C621.39,401.85,608.86,401.44,600.37,409.53Z" transform="translate(0.21 0.19)"/></svg>