<svg id="Layer_1" data-name="Layer 1" xmlns="http://www.w3.org/2000/svg" viewBox="0 0 999.98 879.92"><defs><style>.cls-1{fill:#328080;}.cls-2{fill:#18ffff;}</style></defs><title>feature - no coupling</title><path class="cls-1" d="M438.67,471.56h0a49.49,49.49,0,0,0-66.21,11.23L292.21,587.52c-23.27,27.28-45.34,42.53-63,43.33-10,.4-19.26-3.21-28.09-11.63-13.24-12.44-20.86-30.5-20.86-49.76V392.11a19.56,19.56,0,0,0-35.71-11.23l-132.41,195A72.72,72.72,0,0,0,1.32,629.65L57.49,900.08v20.06a19.7,19.7,0,0,0,19.66,19.67H360.83a19.93,19.93,0,0,0,19.66-17.66l11.23-124.78c5.62-60.19,19.66-118.77,42.13-173.34,3.61-8.83,7.22-17.65,10.84-26.08,7.62-18.06,14.44-34.91,19.66-49.35C474.78,519.71,464.35,488,438.67,471.56ZM427.83,535c-4.81,13.64-12,30.09-19.26,47.74q-5.42,12.64-10.83,26.48c-24.07,58.59-38.92,120.78-44.94,185l-9.63,106.73H96.81v-2.41a13.64,13.64,0,0,0-.4-4L39.43,622a31,31,0,0,1,4.82-23.67l96.3-142.44V569.46c0,30.09,12.43,59,33.7,78.64,16.85,15.65,36.51,22.88,57,21.67,29.29-1.6,59.78-20.86,91.08-57.78l81.05-105.12A10.11,10.11,0,0,1,417,504.46,25.61,25.61,0,0,1,427.83,535Z" transform="translate(-0.02 -59.89)"/><path class="cls-2" d="M868,263.32h0a131.71,131.71,0,0,0-55.77,12.44V79.55a20.77,20.77,0,0,0-5.62-14,20,20,0,0,0-14-5.62H558.64a20.45,20.45,0,0,0-18.06,11.63,19.71,19.71,0,0,0,3.61,21.27,92.26,92.26,0,0,1-67.41,155.28h0a92.26,92.26,0,0,1-67.4-155.28A19.71,19.71,0,0,0,413,71.52a19.35,19.35,0,0,0-18.06-11.63H159.4a20.74,20.74,0,0,0-14,5.62c-4,3.61-5.62,8.82-5.62,14V311.47a19.67,19.67,0,0,0,39.33,0V98.81H358.42a131.06,131.06,0,0,0-12.84,56.57c0,72.63,59,131.21,131.61,131.21h0c72.62,0,131.2-59,131.2-131.61a128.49,128.49,0,0,0-12.84-56.57H773.3V311.06a19.75,19.75,0,0,0,11.64,18.06c7.22,3.21,15.24,1.6,21.26-3.61a90.83,90.83,0,0,1,62.19-24.08h0a92.3,92.3,0,0,1,92.29,92.29,93.33,93.33,0,0,1-26.88,65.4A92,92,0,0,1,868.39,486h0a92.29,92.29,0,0,1-62.19-24.07c-5.62-5.22-14-6.42-21.26-3.61a19.34,19.34,0,0,0-11.64,18.05V692.24H466.35a19.66,19.66,0,0,0,0,39.32H793A20.76,20.76,0,0,0,807,726a20,20,0,0,0,5.62-14.05v-199a131.86,131.86,0,0,0,55.77,12.44h0A131.52,131.52,0,0,0,1000,393.72C999.6,322.3,940.62,263.32,868,263.32Z" transform="translate(-0.02 -59.89)"/></svg>