<svg id="Layer_1" data-name="Layer 1" xmlns="http://www.w3.org/2000/svg" viewBox="0 0 999.6 1000.11"><defs><style>.cls-1{fill:#328080;}.cls-2{fill:#18ffff;}</style></defs><title>feature - modular</title><path class="cls-1" d="M311,410.23a28.13,28.13,0,0,0,38.22,10.25l94-53.66a27.71,27.71,0,0,0,10.34-38,28.1,28.1,0,0,0-38.24-10.25l-94,53.65A27.7,27.7,0,0,0,311,410.23Z" transform="translate(-0.4 0.11)"/><path class="cls-1" d="M557.19,366.82l94,53.66a27.86,27.86,0,1,0,27.9-48.22l-94-53.65a28.09,28.09,0,0,0-38.22,10.25A27.68,27.68,0,0,0,557.19,366.82Z" transform="translate(-0.4 0.11)"/><path class="cls-2" d="M.4,567.41V837.27a27.74,27.74,0,0,0,14,24.08L250.33,996.28a28.11,28.11,0,0,0,27.95,0L500.17,869.34l222,126.94a28.09,28.09,0,0,0,27.94,0L986,861.35a27.73,27.73,0,0,0,14-24.08V567.41a27.77,27.77,0,0,0-14-24.1L764.09,416.38V162.64a27.78,27.78,0,0,0-14-24.1L514.2,3.6a28.21,28.21,0,0,0-28,0l-235.93,135a27.79,27.79,0,0,0-14,24.1V416.42L14.44,543.32A27.76,27.76,0,0,0,.4,567.41Zm56,48.66L236.29,721.24V924.09L56.4,821.19ZM472.2,316.48V519.3L292.28,416.41V211.3Zm263.91,356.6L555.81,567.7,640.87,519l95.24-54.45L916.37,567.71Zm-28-256.67-63.59,36.37-116.3,66.51V316.48L708.08,211.3ZM264.29,464.57,444.55,567.7,264.29,673.08,84,567.67Zm28,459.52V721.24L472.17,616.07V821.19Zm235.91-308L708.11,721.24V924.09L528.19,821.19Zm235.91,308V721.24L944,616.07V821.19ZM500.22,59.8,680.46,162.89,500.18,268.3,319.93,162.9Z" transform="translate(-0.4 0.11)"/><path class="cls-1" d="M217.63,733.65a28.13,28.13,0,0,0-38.22-10.25L85.38,777A27.73,27.73,0,0,0,75,815a28.11,28.11,0,0,0,38.22,10.25l94-53.63A27.72,27.72,0,0,0,217.63,733.65Z" transform="translate(-0.4 0.11)"/><path class="cls-1" d="M443.2,777l-94-53.63A28.1,28.1,0,0,0,311,733.67a27.71,27.71,0,0,0,10.34,38l94,53.63A27.85,27.85,0,1,0,443.2,777Z" transform="translate(-0.4 0.11)"/><path class="cls-1" d="M689.45,733.65a28.14,28.14,0,0,0-38.24-10.25L557.2,777a27.72,27.72,0,0,0-10.34,38,28.11,28.11,0,0,0,38.22,10.25l94-53.63A27.74,27.74,0,0,0,689.45,733.65Z" transform="translate(-0.4 0.11)"/><path class="cls-1" d="M915,777,821,723.4a28.11,28.11,0,0,0-38.22,10.25,27.72,27.72,0,0,0,10.34,38l94,53.63A28.13,28.13,0,0,0,925.36,815,27.74,27.74,0,0,0,915,777Z" transform="translate(-0.4 0.11)"/></svg>