<svg id="Layer_1" data-name="Layer 1" xmlns="http://www.w3.org/2000/svg" viewBox="0 0 2000 2000"><defs><style>.cls-1{fill:#328080;}.cls-2{fill:#18ffff;}</style></defs><title>12-th var (transparent)</title><path class="cls-1" d="M1000,80a927.56,927.56,0,0,1,185.5,18.69,914.86,914.86,0,0,1,328.82,138.38,922.68,922.68,0,0,1,333.41,404.85,914.83,914.83,0,0,1,53.58,172.58,929.9,929.9,0,0,1,0,371,914.86,914.86,0,0,1-138.38,328.82,922.82,922.82,0,0,1-404.85,333.41,914.83,914.83,0,0,1-172.58,53.58,929.9,929.9,0,0,1-371,0,915,915,0,0,1-328.83-138.38,922.88,922.88,0,0,1-333.4-404.85A914.83,914.83,0,0,1,98.69,1185.5a929.9,929.9,0,0,1,0-371A915,915,0,0,1,237.07,485.67a922.73,922.73,0,0,1,404.85-333.4A914.83,914.83,0,0,1,814.5,98.69,927.56,927.56,0,0,1,1000,80m0-80C447.72,0,0,447.72,0,1000S447.72,2000,1000,2000s1000-447.71,1000-1000S1552.29,0,1000,0Z"/><polygon class="cls-1" points="474 476.05 890.92 476.05 1178.34 780.62 1178.34 1108.6 709.36 614.4 707.89 1524 474 1524 474 476.05"/><polygon class="cls-2" points="1522 1524 1105.17 1524 817.79 1219.38 817.79 891.26 1286.78 1385.36 1288.19 476 1522 476 1522 1524"/><polygon class="cls-2" points="474 1458.5 474 1393 474 607 474 476 708.75 476 708.75 607 591.38 607 591.38 1393 708.75 1393 708.75 1524 474 1524 474 1458.5"/><polygon class="cls-1" points="1287.25 1524 1287.25 1392.98 1404.62 1392.98 1404.62 606.84 1287.25 606.84 1287.25 475.81 1522 475.81 1522 606.84 1522 1392.98 1522 1458.49 1522 1524 1287.25 1524"/></svg>