<?xml version="1.0" ?><svg id="Layer_1" style="enable-background:new 0 0 256 256;" version="1.1" viewBox="0 0 256 256" xml:space="preserve" xmlns="http://www.w3.org/2000/svg" xmlns:xlink="http://www.w3.org/1999/xlink"><g><path d="M250,107.8c-0.4-2.3-2.4-4.1-4.7-4.2c-0.1,0-0.5,0-0.6,0l-4.6,0c-3.9,0-7.9,0-11.9,0c-2.5-10.4-6.6-20.2-12.2-29.4l1.4-1.4   c3.5-3.5,7-7.1,10.6-10.5c1.8-1.7,2-4.5,0.6-6.5c-7.9-11-17.5-20.5-28.5-28.4c-2-1.4-4.8-1.2-6.5,0.6c-1.9,2-3.9,3.9-5.8,5.8   c-2.1,2-4.1,4.1-6.1,6.2c-9.2-5.6-19.1-9.6-29.5-12.1c0-1.4,0-2.9,0-4.3l0-2.4c0-0.2,0-0.4,0-0.6l0-2.9c0-2.1,0-4.3,0-6.7   c0-2.5-1.8-4.6-4.2-5c-13-2.1-26.5-2.1-39.5,0c-2.5,0.4-4.3,2.7-4.2,5.3c0.1,2.1,0.1,4.3,0,6.4l0,2.9c0,0.2,0,0.4,0,0.6l0,2.4   c0,1.5,0,2.9,0,4.3c-10.4,2.5-20.3,6.5-29.5,12.1c-2-2.1-4.1-4.1-6.1-6.2c-1.9-1.9-3.9-3.9-5.8-5.8c-1.7-1.8-4.5-2-6.5-0.6   c-11,7.9-20.6,17.5-28.5,28.4c-1.5,2-1.2,4.8,0.6,6.5c3.6,3.5,7.1,7,10.6,10.5l1.4,1.4c-5.6,9.1-9.7,19-12.2,29.4   c-4-0.1-8-0.1-11.9,0l-4.6,0c-0.1,0-0.5,0-0.6,0c-2.4,0.1-4.4,1.9-4.7,4.2c-1.1,6.6-1.6,13.4-1.6,20.2c0,6.7,0.5,13.5,1.6,20.1   c0.4,2.3,2.2,4,4.5,4.2c0.4,0,0.9,0.1,1.3,0.1c3.4,0,6.7,0,10.1,0c2,0,4,0,6,0c2.5,10.5,6.7,20.5,12.4,29.7   c-2.3,2.2-4.6,4.5-6.8,6.8l-3.8,3.8c-0.6,0.6-1.1,1.1-1.5,1.5c-1.6,1.8-1.8,4.4-0.4,6.3c7.9,10.9,17.4,20.3,28.3,28.2   c1.9,1.4,4.6,1.2,6.3-0.4c0.2-0.2,0.4-0.4,0.5-0.5c2.3-2.4,4.6-4.7,6.9-7c1.5-1.5,3.1-3.1,4.6-4.6c9.2,5.6,19.1,9.7,29.6,12.2   c0,2.8,0,5.6,0,8.5c0,2.7,0,5.3,0,8.1c0,0.1,0,0.6,0,0.7c0.1,2.3,1.9,4.3,4.2,4.6c6.4,1,13.1,1.6,19.7,1.6c6.6,0,13.2-0.5,19.7-1.6   c2.3-0.4,4.1-2.3,4.2-4.6c0-0.1,0-0.7,0-0.8c0-2.7,0-5.3,0-8c0-2.8,0-5.6,0-8.5c10.5-2.5,20.4-6.6,29.6-12.2   c1.5,1.6,3.1,3.1,4.6,4.6c2.3,2.3,4.6,4.6,6.9,6.9c0.2,0.2,0.4,0.4,0.6,0.6c1.8,1.6,4.4,1.8,6.3,0.4c10.9-7.8,20.5-17.3,28.3-28.2   c1.4-1.9,1.2-4.6-0.4-6.3c-0.4-0.4-0.9-1-1.5-1.5l-3.8-3.8c-2.2-2.2-4.5-4.5-6.8-6.8c5.7-9.2,9.8-19.2,12.4-29.7c2,0,4,0,6,0   c3.4,0,6.7,0,10,0c0.5,0,1,0,1.4,0c2.3-0.2,4.1-1.9,4.5-4.2c1.1-6.6,1.6-13.3,1.6-20.1C251.6,121.2,251.1,114.5,250,107.8z    M240.7,142.2c-2.2,0-4.4,0-6.6,0c-3.1,0-6.2,0-9.4,0c-0.4,0-0.7,0-1,0c-2.3,0.2-4.1,1.8-4.6,4c-2.4,12-7.1,23.3-14,33.5   c-1.2,1.7-1.1,4,0,5.7c0.4,0.6,0.9,1.2,1.6,1.8c2.9,2.8,5.8,5.7,8.7,8.6l2.1,2.1c-5.8,7.4-12.5,14.1-20,19.9   c-1.4-1.4-2.9-2.9-4.3-4.3c-2.2-2.2-4.3-4.3-6.5-6.5c-0.6-0.6-1.2-1.2-1.9-1.6c-1.7-1.1-3.8-1.1-5.5,0   c-10.2,6.8-21.4,11.4-33.3,13.7c-1.9,0.4-3.4,1.8-3.9,3.7c-0.2,0.9-0.3,1.9-0.3,3c0.1,3.6,0.1,7.1,0.1,10.7c0,1.4,0,2.7,0,4.1   c-9.1,1.1-18.5,1.1-27.7,0c0-1.4,0-2.7,0-4.1c0-3.6,0-7.1,0.1-10.7c0-1.1-0.1-2.1-0.3-3c-0.5-1.9-2-3.4-3.9-3.7   c-12-2.3-23.2-6.9-33.3-13.7c-1.7-1.1-3.8-1.1-5.5,0c-0.7,0.4-1.3,1-1.9,1.6c-2.1,2.2-4.3,4.4-6.5,6.5c-1.4,1.4-2.9,2.8-4.3,4.3   c-7.5-5.8-14.2-12.5-20-19.9l2.1-2.1c2.9-2.9,5.7-5.8,8.7-8.6c0.6-0.6,1.1-1.2,1.5-1.8c1.2-1.7,1.2-3.9,0-5.7   c-6.9-10.2-11.6-21.5-14-33.5c-0.4-2.2-2.3-3.9-4.6-4c-0.3,0-0.7-0.1-1.1,0c-3.1,0-6.2,0-9.3,0c-2.2,0-4.3,0-6.6,0   c-0.6-4.7-0.9-9.5-0.9-14.2c0-4.8,0.3-9.6,0.9-14.3l0.7,0c4.5,0,9.2,0,13.8,0.1c1.3,0,2.4-0.1,3.4-0.3c1.9-0.5,3.3-2,3.6-3.9   c2.4-11.8,7-22.9,13.7-33c1.1-1.7,1.1-3.8,0.1-5.5c-0.7-1.1-1.6-2-2.8-3.2l-2-2c-2.5-2.5-5-5-7.5-7.5C44.2,50.7,51,44,58.6,38.1   c0.9,0.9,1.9,1.9,2.8,2.8c2.5,2.5,5,5,7.4,7.5c0.7,0.7,1.8,1.7,3.3,2.4c1.6,0.7,3.4,0.5,4.8-0.4C87,43.7,98.1,39.1,110,36.8   c1.9-0.4,3.4-1.8,3.9-3.6c0.2-0.9,0.3-1.8,0.3-2.9c-0.1-2.3-0.1-4.5,0-6.8l0-3.1c0-0.2,0-0.4,0-0.6l0-2.2c0-0.8,0-1.6,0-2.4   c9.2-1.1,18.5-1.1,27.7,0c0,0.8,0,1.6,0,2.4l0,2.2c0,0.2,0,0.4,0,0.6l0,3.1c0,2.3,0,4.5,0,6.8c0,1.1,0.1,2,0.3,2.9   c0.5,1.8,2,3.3,3.9,3.6c11.9,2.3,23,6.9,33.1,13.6c1.4,0.9,3.2,1.1,4.8,0.4c1.5-0.7,2.6-1.7,3.3-2.4c2.4-2.5,4.9-5,7.4-7.5   c0.9-0.9,1.9-1.9,2.8-2.8c7.6,5.9,14.4,12.6,20.2,20.1c-2.5,2.5-5,5-7.5,7.5l-2,2c-1.2,1.2-2.1,2.1-2.8,3.2c-1.1,1.7-1,3.8,0.1,5.5   c6.7,10.1,11.3,21.2,13.7,33c0.4,1.9,1.8,3.4,3.6,3.9c1,0.3,2.1,0.4,3.4,0.3c4.6-0.2,9.3-0.1,13.8-0.1l0.7,0   c0.6,4.7,0.9,9.6,0.9,14.3C241.6,132.8,241.3,137.5,240.7,142.2z M244.6,108.7L244.6,108.7L244.6,108.7L244.6,108.7z"/><path d="M180.7,90.1c-4.1-5.8-9.2-10.8-15-14.9c-8.1-5.8-17.6-9.7-27.4-11.3c-6.8-1.1-13.9-1.1-20.7,0c-9.8,1.6-19.3,5.5-27.4,11.3   c-5.8,4.1-10.8,9.2-15,14.9c-5.8,8.1-9.7,17.5-11.4,27.3c-0.6,3.5-0.9,7-0.9,10.6c0,3.5,0.3,7.1,0.8,10.5   c1.6,9.9,5.6,19.4,11.5,27.5c4.1,5.7,9.1,10.7,14.9,14.8c8.1,5.8,17.6,9.7,27.4,11.3c3.4,0.5,6.9,0.8,10.3,0.8   c3.4,0,6.9-0.3,10.3-0.8c9.8-1.6,19.3-5.5,27.4-11.3c5.7-4.1,10.7-9.1,14.9-14.8c5.9-8.1,9.9-17.6,11.5-27.5c0,0,0,0,0,0   c0.6-3.5,0.8-7,0.8-10.5c0-3.6-0.3-7.1-0.9-10.6C190.5,107.6,186.5,98.2,180.7,90.1z M182.2,136.9c-1.4,8.3-4.7,16.4-9.7,23.2   c-3.5,4.8-7.7,9-12.6,12.5c-6.8,4.9-14.8,8.2-23.1,9.5c-5.8,0.9-11.7,0.9-17.5,0c-8.3-1.3-16.3-4.6-23.2-9.5   c-4.8-3.5-9.1-7.7-12.6-12.5c-5-6.9-8.3-14.9-9.7-23.2c-0.5-2.9-0.7-5.9-0.7-8.9c0-3,0.2-6,0.7-9c1.4-8.3,4.7-16.3,9.6-23.1   c3.5-4.9,7.8-9.1,12.7-12.6c6.8-4.9,14.8-8.2,23.1-9.5c2.9-0.5,5.8-0.7,8.8-0.7s5.9,0.2,8.8,0.7c8.3,1.3,16.3,4.6,23.1,9.5   c4.9,3.5,9.2,7.8,12.7,12.6c4.9,6.8,8.2,14.8,9.6,23.1c0.5,2.9,0.7,5.9,0.7,9C182.9,131,182.6,134,182.2,136.9z"/><path d="M153.5,105.8L118,139.5l-15.3-15.9c-1.9-2-5.1-2.1-7.1-0.1c-2,1.9-2.1,5.1-0.1,7.1l18.8,19.5c1,1,2.3,1.5,3.6,1.5   c1.2,0,2.5-0.5,3.5-1.4l39.2-37.2c2-1.9,2.1-5.1,0.2-7.1C158.7,103.9,155.6,103.8,153.5,105.8z"/></g></svg>