<?xml version="1.0" ?><!DOCTYPE svg  PUBLIC '-//W3C//DTD SVG 1.1//EN'  'http://www.w3.org/Graphics/SVG/1.1/DTD/svg11.dtd'><svg enable-background="new 0 0 91 91" height="91px" id="Layer_1" version="1.1" viewBox="0 0 91 91" width="91px" xml:space="preserve" xmlns="http://www.w3.org/2000/svg" xmlns:xlink="http://www.w3.org/1999/xlink"><g><g><g><g><path d="M28.796,37.569c0.465,0.809,1.311,1.26,2.182,1.26c0.424,0,0.854-0.107,1.248-0.334l8.438-4.849      c1.203-0.692,1.619-2.227,0.928-3.43s-2.227-1.619-3.432-0.926l-8.438,4.848C28.519,34.829,28.104,36.366,28.796,37.569z"/><path d="M50.892,33.646l8.438,4.849c0.395,0.227,0.824,0.334,1.25,0.334c0.869,0,1.717-0.451,2.18-1.26      c0.691-1.203,0.277-2.74-0.926-3.431l-8.438-4.848c-1.203-0.693-2.738-0.277-3.43,0.926S49.688,32.954,50.892,33.646z"/><path d="M0.927,51.772v24.385c0,0.898,0.48,1.729,1.26,2.176l21.168,12.193c0.389,0.223,0.82,0.336,1.254,0.336      s0.865-0.113,1.254-0.336l19.912-11.471l19.92,11.471c0.389,0.223,0.82,0.336,1.254,0.336s0.865-0.113,1.254-0.336      l21.166-12.193c0.779-0.447,1.26-1.277,1.26-2.176V51.772c0-0.898-0.48-1.729-1.26-2.178l-19.91-11.469V15.196      c0-0.898-0.479-1.729-1.258-2.178L47.034,0.825c-0.775-0.447-1.732-0.447-2.508,0L23.354,13.019      c-0.779,0.449-1.26,1.279-1.26,2.178v22.931L2.187,49.595C1.407,50.044,0.927,50.874,0.927,51.772z M5.952,56.169l16.143,9.504      v18.33L5.952,74.704V56.169z M43.265,29.097v18.328L27.12,38.127V19.593L43.265,29.097z M66.948,61.321l-16.18-9.523      l7.633-4.398l8.547-4.92l16.176,9.319L66.948,61.321z M64.433,38.127l-5.707,3.287l-10.436,6.01V29.097l16.143-9.504V38.127z       M24.608,42.479l16.176,9.319l-16.176,9.523L8.431,51.796L24.608,42.479z M27.12,84.003v-18.33l16.143-9.504v18.535      L27.12,84.003z M48.29,56.167l16.145,9.506v18.33L48.29,74.704V56.167z M69.46,84.003v-18.33l16.143-9.504v18.535L69.46,84.003z       M45.78,5.903l16.174,9.316l-16.178,9.525L29.601,15.22L45.78,5.903z"/><path d="M20.421,66.794c-0.691-1.201-2.227-1.617-3.43-0.926l-8.438,4.846c-1.203,0.691-1.619,2.227-0.928,3.432      c0.465,0.809,1.311,1.26,2.182,1.26c0.424,0,0.854-0.107,1.248-0.334l8.438-4.846C20.696,69.534,21.112,67.999,20.421,66.794z"/><path d="M40.663,70.714l-8.438-4.846c-1.203-0.691-2.738-0.277-3.43,0.928c-0.691,1.203-0.275,2.738,0.928,3.43l8.438,4.846      c0.395,0.227,0.824,0.334,1.248,0.334c0.871,0,1.717-0.451,2.182-1.262C42.282,72.94,41.866,71.405,40.663,70.714z"/><path d="M62.761,66.794c-0.691-1.201-2.227-1.617-3.432-0.926l-8.436,4.846c-1.203,0.691-1.619,2.227-0.928,3.432      c0.465,0.809,1.311,1.26,2.182,1.26c0.424,0,0.854-0.107,1.248-0.334l8.438-4.846C63.036,69.534,63.45,67.999,62.761,66.794z"/><path d="M83.003,70.714l-8.438-4.846c-1.205-0.691-2.738-0.277-3.43,0.926c-0.691,1.205-0.275,2.74,0.928,3.432l8.436,4.846      c0.395,0.227,0.826,0.334,1.25,0.334c0.869,0,1.717-0.451,2.182-1.26C84.62,72.94,84.206,71.405,83.003,70.714z"/></g></g></g></g></svg>