<?xml version="1.0" ?><svg style="enable-background:new 0 0 50 50;" version="1.1" viewBox="0 0 50 50" xml:space="preserve" xmlns="http://www.w3.org/2000/svg" xmlns:xlink="http://www.w3.org/1999/xlink"><g id="Layer_1"><path d="M43,24c-0.688,0-1.361,0.119-2,0.351V9H26.649C26.881,8.361,27,7.688,27,7c0-3.309-2.691-6-6-6s-6,2.691-6,6   c0,0.688,0.119,1.361,0.351,2H1v19.031l1.603-1.21C3.313,26.284,4.143,26,5,26c2.206,0,4,1.794,4,4s-1.794,4-4,4   c-0.857,0-1.687-0.284-2.397-0.82L1,31.969V49h40V35.649C41.639,35.881,42.312,36,43,36c3.309,0,6-2.691,6-6S46.309,24,43,24z    M43,34c-0.857,0-1.687-0.284-2.397-0.82L39,31.969V47H3V35.649C3.639,35.881,4.312,36,5,36c3.309,0,6-2.691,6-6s-2.691-6-6-6   c-0.688,0-1.361,0.119-2,0.351V11h16.031L17.82,9.397C17.284,8.687,17,7.857,17,7c0-2.206,1.794-4,4-4s4,1.794,4,4   c0,0.857-0.284,1.687-0.82,2.397L22.969,11H39v17.031l1.603-1.21C41.313,26.284,42.143,26,43,26c2.206,0,4,1.794,4,4   S45.206,34,43,34z"/></g><g/></svg>